<?xml version="1.0" encoding="utf-8"?>
<!-- Generator: Adobe Illustrator 26.5.0, SVG Export Plug-In . SVG Version: 6.00 Build 0)  -->
<svg version="1.1" id="_레이어_2" xmlns="http://www.w3.org/2000/svg" xmlns:xlink="http://www.w3.org/1999/xlink" x="0px"
	 y="0px" viewBox="0 0 431.8 263.8" style="enable-background:new 0 0 431.8 263.8;" xml:space="preserve">
<style type="text/css">
	.st0{fill:#FFFFFF;}
</style>
<g id="_레이어_1-2">
	<g>
		<g>
			<path class="st0" d="M167,161.2c-0.2,0-0.4-0.1-0.5-0.2c-5.6-4.2-9-12.3-9-21.8c0-0.9,0-1.9,0.1-2.9c-11.3-0.1-17-5.2-17-15.3
				c0-8.8,4.2-20.3,12.9-35.2c4.4-7.5,10.2-15.7,16.9-23.9l-14.5,5.4c-1.8,4.2-4.2,8.2-9.2,10c-0.1,0-0.2,0.1-0.3,0.1
				c-0.1,0-0.3,0-0.4-0.1c-0.2-0.1-0.4-0.3-0.4-0.6l-0.1-0.6c-0.1-0.4,0.2-0.9,0.6-1c2.5-0.6,4-3.2,5.7-6.2c-4.6,1.8-9.8,3.8-14.9,6
				C121.5,99.7,103,118.2,83,128.5c3.7,11.8,17.7,13.1,23.6,13.1c3.5,0,6.9-0.4,10.2-1.1c0.1,0,0.1,0,0.2,0c0.2,0,0.3,0.1,0.5,0.1
				c0.2,0.1,0.3,0.3,0.4,0.5l0.1,0.6c0.1,0.4-0.2,0.9-0.7,1c-3.4,0.8-7,1.1-10.6,1.1c-13.4,0-22.8-5.2-25.9-14.4
				c-11.9,5.8-24.5,8.8-37.4,8.8C11.4,138.3,0,119.4,0,103.2c0-21.3,18.3-44.4,47.8-44.4c23.1,0,31.3,13.9,31.3,25.8
				c0,16.1-13.3,32.7-35.6,32.7c-13.8,0-19.9-8.3-19.9-16.5c0-9.8,8.3-20,22.2-20h1c0.2,0,0.5,0.1,0.7,0.3s0.2,0.4,0.2,0.7l-0.1,0.8
				c-0.1,0.4-0.4,0.7-0.8,0.7H45c-11.7,0-19,9.2-19,17.7c0,6.7,4.5,13.8,17.1,13.8c18.9,0,32.2-16.8,32.2-31.9
				c0-13.6-10.3-21.7-27.5-21.7C19.7,61.2,2.4,83,2.4,103.3c0,15.8,10.8,32.8,41.2,32.8c13.1,0,25.1-3.2,36.6-9.9
				c-0.2-1.3-0.3-2.5-0.3-3.9c0-22,24.5-35.7,48.5-46.2l5-7.2c9.5-13.7,17.6-24.4,25-32.9c-5.3,3.5-9.6,5.1-13.4,5.1
				c-4.3,0-6.8-2.5-6.8-7c0-3.8,1.8-7.5,3.5-11.1c1.7-3.5,3.3-6.8,3.3-10.1c0-5.3-6.4-8.7-16.3-8.7c-18.4,0-32.5,10.9-39.3,17.5
				c-10.1,9.7-16.7,21.6-16.7,30.4c0,7.2,4.5,10.9,12.9,10.9c18.7,0,35-22,39.1-37.1c0.1-0.4,0.4-0.6,0.8-0.6c0.1,0,0.1,0,0.1,0
				l0.8,0.1c0.2,0,0.4,0.2,0.6,0.4s0.2,0.4,0.1,0.7c-3,13.5-15.6,39.2-41.6,39.2c-9.5,0-15.2-5-15.2-13.4
				c0-18.9,27.2-50.3,58.3-50.3c18.2,0,20.2,9.8,20.2,14c0,5.6-2.5,10.1-4.4,13.8c-1.4,2.5-2.6,4.7-2.6,6.6c0,1.1,0.4,2.4,3.3,2.4
				c6.2,0,16.1-6.7,23-13.4c7-7,13.8-12.1,20.2-15.3c0.1-0.1,0.2-0.1,0.4-0.1c0.1,0,0.2,0,0.4,0.1c0.2,0.1,0.4,0.3,0.5,0.6l0.1,0.5
				c0.1,0.4-0.1,0.8-0.4,1c-6.8,3.6-12.8,8.2-19.5,15c-8.4,8.7-17.1,22-30.8,44.7l14.6-5.7c1.6-3.2,4-7,8.5-8.3c0.1,0,0.2,0,0.2,0
				c0.1,0,0.3,0,0.4,0.1c0.2,0.1,0.4,0.3,0.4,0.6l0.1,0.6c0.1,0.4-0.2,0.9-0.6,1c-2.2,0.6-3.6,2.2-5,4.5c6.1-2.3,11.2-4.1,15.9-5.8
				C197.8,29.7,234,0,252.5,0c6.6,0,10.6,3.3,10.6,8.6c0,19.6-39.4,34-81.1,49.2c-22.8,27.2-37.5,53-37.5,65.9
				c0,7,4.2,10.3,13.2,10.3c2.7-30.1,27.8-59.3,51.1-59.3c6.1,0,9.6,3.5,9.6,9.5c0,16.8-26.3,50.5-58.3,52c-0.1,1.1-0.1,2-0.1,3.1
				c0,9.2,2.7,15.9,7.9,19.9c0.2,0.1,0.3,0.4,0.3,0.6s-0.1,0.5-0.2,0.7l-0.5,0.5C167.4,161.1,167.2,161.2,167,161.2L167,161.2z
				 M208.7,77c-18.6,0-44.8,31.1-48.3,56.8c30-1.8,55.6-34.2,55.6-49.7C216,79.4,213.6,77,208.7,77z M125.5,79.7
				c-20.8,9.5-43.4,22.7-43.4,42.5c0,0.9,0.1,1.8,0.2,2.6C99.7,114,113.7,96.1,125.5,79.7z M252.5,2.3c-16,0-45,25.6-67.5,51.8
				c37.8-13.7,75.8-27.9,75.8-45.5C260.8,2.9,255,2.3,252.5,2.3L252.5,2.3z"/>
			<path class="st0" d="M162.2,58.9c-3.3,0.9-4.9,3.6-6.6,6.9c6-2.3,12.2-4.5,18.3-6.7C199.4,29,235.1,0.9,252.5,0.9
				c5.3,0,9.8,2.4,9.8,7.8c0,19.1-39.4,33.4-80.8,48.4c-21.2,25.2-37.9,52.6-37.9,66.6c0,7.9,5.1,11.2,14.2,11.2h0.6
				c2.3-29.7,27.2-59.3,50.3-59.3c6.1,0,8.8,3.5,8.8,8.7c0,16.4-26.5,50.2-58.2,51.2c-0.1,1.4-0.1,2.6-0.1,3.9
				c0,8.5,2.3,16.1,8.3,20.6l-0.5,0.5c-6.3-4.6-8.7-13.4-8.7-21.1c0-1.2,0-2.5,0.1-3.8h-0.6c-12.3,0-16.4-6-16.4-14.4
				c0-11,7-24.8,12.8-34.8c4.9-8.4,11.4-17.4,18.8-26.2l-17.8,6.7c-1.9,4.4-4.1,8.2-8.9,9.9l-0.1-0.6c3.4-0.9,5.1-4.6,7.3-8.7
				c-5.9,2.3-11.7,4.5-17.3,6.9c-14.3,23.5-32.5,42.9-54.1,53.8c2.9,10.5,13.6,14.4,24.6,14.4c3.5,0,7-0.4,10.4-1.1l0.1,0.6
				c-3.4,0.8-6.9,1.1-10.4,1.1c-11.4,0-22.3-4.1-25.3-14.8c-11.7,5.9-24.3,9.2-37.9,9.2c-29.7,0-42.7-16.5-42.7-34.3
				c0-20.9,17.7-43.5,46.9-43.5c21.1,0,30.5,12,30.5,25c0,15.3-12.9,31.9-34.8,31.9c-13,0-19.1-7.5-19.1-15.7
				c0-9.3,7.8-19.2,21.3-19.2h1l-0.1,0.8H45c-12.4,0-19.8,9.7-19.8,18.6c0,7.7,5.4,14.7,17.9,14.7c19.5,0,33-17.4,33-32.8
				c0-11.9-8.3-22.6-28.3-22.6C19,60.3,1.5,82.7,1.5,103.2c0,17.4,12.7,33.6,42,33.6c14.3,0,26.6-3.9,37.5-10.3
				c-0.2-1.4-0.4-2.8-0.4-4.4c0-20.3,21.4-33.9,48.2-45.5l5.1-7.4c10-14.4,20.4-28.3,30.7-39.3c-6.4,5.3-13.7,10.2-19.8,10.2
				c-4.4,0-5.9-2.9-5.9-6.2c0-7.3,6.8-14,6.8-21.2c0-5.1-5.5-9.5-17.2-9.5c-30.6,0-56.8,31-56.8,48.7c0,6.9,4.1,11.8,13.8,11.8
				c19.6,0,35.9-22.8,39.9-37.8l0.8,0.1c-3.3,14.7-16.1,38.5-40.8,38.5c-9.7,0-14.3-5.1-14.3-12.5c0-18.2,26.3-49.4,57.5-49.4
				c14.6,0,19.3,6.5,19.3,13.2c0,9.3-7,15.4-7,20.3c0,2.3,1.5,3.3,4.1,3.3c6.8,0,16.8-7.2,23.6-13.7c6.6-6.6,13.4-11.9,19.9-15.2
				l0.1,0.5c-7.4,3.9-13.4,8.8-19.7,15.2c-8.9,9.2-18.1,23.5-32.2,47l17.2-6.8c1.9-3.9,4.3-7,8.2-8.2L162.2,58.9z M81.7,126.2
				c18.2-10.9,32.6-29.2,46.4-48.5c-26.1,11.5-46.8,25.1-46.8,44.5C81.3,123.7,81.4,124.9,81.7,126.2z M159.4,134.7
				c31-1.1,57.5-34.8,57.5-50.6c0-4.9-2.5-8-8.2-8C188.9,76.1,162.3,109.2,159.4,134.7L159.4,134.7z M182.3,56.1
				c40.9-14.8,79.4-29.1,79.4-47.4c0-5.1-4.3-7.2-9.2-7.2C236.1,1.5,206.5,27.3,182.3,56.1L182.3,56.1z"/>
		</g>
		<g>
			<path class="st0" d="M222.5,126.9c-5.2,0-7.4-2.4-8.4-7.4c-3.9,4.5-8.4,7.4-14.6,7.4c-6.8,0-13.9-4.9-13.9-12.5
				c0-14.1,18.2-16.1,28.4-16.6v-5.5c0-5.6,0.1-14.2-7.3-14.2c-10.5,0-3.3,13.1-13,13.1c-3.3,0-6.1-2-6.1-5.6
				c0-8.9,13-11.3,19.4-11.3c12.8,0,17.6,4.8,17.6,18v21.8c0,3.7,0,9.1,4.8,9.1c1.4,0,2.9-0.6,4.1-1v2.7
				C229.9,126.3,226.6,126.9,222.5,126.9L222.5,126.9z M214,101.8c-6.9,0.2-16.8,2-16.8,11.1c0,4.3,2.2,7.8,6.7,7.8
				c7.1,0,10.1-5.8,10.1-12.5C214,108.2,214,101.8,214,101.8z"/>
			<path class="st0" d="M263.4,126.9c-7.1,0-9.6-2.4-13.5-7.8h-0.2v17.7c0,6.6,1.1,9.8,8,9.6v2.4h-26.7v-2.4c6.9,0.1,8-3.1,8-9.6
				V88.1c0-6-2.1-8.9-8-8.8V77l18.7-2.6v8.8c4.6-5.4,7.2-8.8,15-8.8c13.9,0,17.6,14.1,17.6,25.9
				C282.3,113.3,278.4,126.9,263.4,126.9L263.4,126.9z M259.8,80.6c-9.2,0-10.1,12.8-10.1,19.7s0.1,21.3,10.1,21.3
				c11.4,0,11-12.8,11-21.3C270.7,92.5,269.9,80.6,259.8,80.6z"/>
			<path class="st0" d="M316.8,126.9c-7.1,0-9.6-2.4-13.5-7.8h-0.2v17.7c0,6.6,1.1,9.8,8,9.6v2.4h-26.7v-2.4c6.9,0.1,8-3.1,8-9.6
				V88.1c0-6-2.1-8.9-8-8.8V77l18.7-2.6v8.8c4.6-5.4,7.2-8.8,15-8.8c13.9,0,17.6,14.1,17.6,25.9
				C335.8,113.3,331.8,126.9,316.8,126.9L316.8,126.9z M313.2,80.6c-9.2,0-10.1,12.8-10.1,19.7s0.1,21.3,10.1,21.3
				c11.4,0,11-12.8,11-21.3C324.2,92.5,323.3,80.6,313.2,80.6z"/>
			<path class="st0" d="M385.8,87.7l-17.3,45.1c-3.6,9.3-5.9,16.1-17.2,16.1c-4.5,0-11.8-1.9-11.8-7.7c0-3.5,2.7-5.9,6-5.9
				c6.7,0,4.6,8,9.9,8c4.8,0,8.1-10.7,9.5-14.1l-17.5-41.9c-2.7-6.2-4-9.4-11.4-9.4v-2.4h26.3v2.4c-1.9,0-5.5,0.1-5.5,2.8
				c0,1.3,1.2,3.8,1.6,5l11.6,29.5L380,87.3c0.5-1.4,1.7-4.1,1.7-5.6c0-3.5-3.1-3.8-5.9-3.8v-2.4h21.6v2.4
				C389.7,77.9,388.4,80.9,385.8,87.7L385.8,87.7z"/>
		</g>
		<g>
			<path class="st0" d="M193.3,263.8c-39.1,0-43.4-9.2-43.4-13.2c0-4.5,5.5-9.1,17.8-9.1c17.7,0,35.5,4.8,52.8,9.4
				c5.8,1.5,11.3,3,16.7,4.3c29.7-10.1,44.8-32.1,62.2-57.7l3.9-5.9l0.4-0.6c15.8-23.6,29.5-44.1,54.4-46.1c0,0,0,0,0.1,0
				c0.2,0,0.4,0.1,0.6,0.2c0.2,0.2,0.3,0.4,0.3,0.6v0.6c0,0.4-0.3,0.8-0.8,0.9c-22.7,1.6-34.2,21.3-46.5,42.1
				c-2.4,4.1-4.9,8.4-7.5,12.5c-18,28.4-33.1,45.9-59.7,54.9c7.4,1.4,13.5,2.1,19,2.1c20.7,0,33.3-6.7,48.4-25.4
				c0.2-0.2,0.4-0.3,0.7-0.3c0.2,0,0.4,0.1,0.5,0.2l0.5,0.4c0.2,0.1,0.3,0.3,0.3,0.6c0,0.2,0,0.5-0.2,0.6
				c-19,24.3-35.9,26.3-50.2,26.3c-6.7,0-14.1-0.9-23.7-3C226.6,262,211.4,263.8,193.3,263.8L193.3,263.8z M167.7,243.8
				c-10.6,0-15.5,3.5-15.5,6.8c0,1.8,2,10.8,41.1,10.8c15.1,0,28.1-1.6,39.6-5c-4.2-1.1-8.4-2.2-12.8-3.4
				C203.2,248.6,185.7,243.8,167.7,243.8L167.7,243.8z M238.2,218.3c-19.2,0-30.2-10.1-30.2-27.7c0-14.9,6.6-29.7,18.1-40.8
				c14.3-13.8,35.4-21,61.2-21c14.4,0,30.9,1.8,48.3,3.7c20.9,2.3,42.5,4.6,65.1,4.6c26,0,28.8-9.6,28.8-13.7c0-2.5-1.3-5-2.5-6.2
				c-0.3-0.3-0.3-0.9,0-1.2l0.4-0.4c0.2-0.2,0.4-0.2,0.6-0.2s0.4,0.1,0.6,0.2c1.9,1.9,3.3,5.2,3.3,7.8c0,9.4-9,20.3-34.4,20.3
				c-19.8,0-39.3-3.3-58.2-6.5c-18.2-3.1-35.3-5.9-52.1-5.9c-60.8,0-76.8,38.8-76.8,59.4c0,16,9.9,25.1,27.1,25.1
				c24.7,0,44.7-27.6,44.7-45.6c0-5.6-2.1-15.1-15.8-15.1c-16.8,0-31.2,15.3-34.3,36.3c0,0.2-0.2,0.4-0.4,0.6
				c-0.1,0.1-0.3,0.1-0.5,0.1c-0.1,0-0.1,0-0.2,0l-0.5-0.1c-0.4-0.1-0.7-0.5-0.6-0.9c2.1-18.8,16.4-38.3,36.6-38.3
				c12.2,0,19.5,7.4,19.5,19.7c0,9.9-5,21.4-13,30.1C263.8,212.7,251.4,218.3,238.2,218.3L238.2,218.3z"/>
			<path class="st0" d="M313,234.3c-18.1,23.1-33.8,26-49.6,26c-7.6,0-15.6-1.2-23.7-3c-12.6,3.6-27.7,5.6-46.4,5.6
				c-33.6,0-42.5-6.8-42.5-12.3c0-4.5,6-8.3,16.9-8.3c23.5,0,47.6,8.5,69.5,13.7c29.9-10,44.8-31.6,62.8-58.1l3.9-5.9
				c15.8-23.6,29.5-44.3,54.2-46.3v0.6c-27.7,2-39.1,30.4-54.7,54.9c-17.3,27.4-32.9,46.5-62.4,55.6c7.8,1.6,15.3,2.8,22.3,2.8
				c22,0,34.8-7.9,49-25.7L313,234.3L313,234.3z M236.1,256.4c-21.4-5.1-44.5-13.4-68.4-13.4c-10.5,0-16.3,3.5-16.3,7.6
				c0,5,8.5,11.7,41.9,11.7C210.5,262.3,224.4,260.2,236.1,256.4L236.1,256.4z M427.9,116.2c1.6,1.6,3,4.6,3,7.2
				c0,9-8.7,19.5-33.5,19.5c-38.4,0-75.8-12.4-110.3-12.4c-57,0-77.7,34.9-77.7,60.2c0,17.3,11.3,26,28,26c25.1,0,45.5-28,45.5-46.4
				c0-9-4.9-15.9-16.7-15.9c-17.1,0-32,15.3-35.1,37l-0.5-0.1c2-17.8,15.7-37.5,35.8-37.5c12.9,0,18.7,8.3,18.7,18.8
				c0,18.8-18.3,45-46.9,45c-17.4,0-29.4-8.8-29.4-26.9c0-25.8,21.4-61,78.4-61c31,0,71.4,8.3,113.4,8.3c24.2,0,29.6-8.4,29.6-14.6
				c0-2.8-1.4-5.4-2.8-6.8L427.9,116.2L427.9,116.2z"/>
		</g>
		<g>
			<path class="st0" d="M336.6,218.6c-3.7,0-3.2-2.5-6.6-2.5c-1.2,0-2.2,0.8-3.1,1.6c-3.8,3.9-5,11.1-5,16.3v12.3
				c0,6.6,1.1,9.5,8,9.5v2.4h-26.7v-2.4c6.9,0,8-3,8-9.5v-25.7c0-6-2.1-8.8-8-8.8v-2.4l18.7-2.6v12.7h0.2
				c2.5-6.7,6.8-12.7,14.5-12.7c3,0,5.7,2.5,5.7,5.7C342.3,216,340,218.6,336.6,218.6L336.6,218.6z"/>
			<path class="st0" d="M354.7,227.5c0,12.6,4.9,26.9,19.4,26.9c3.3,0,6.7-0.7,9.8-1.9v3.9c-4.7,1.9-9.7,2.9-14.7,2.9
				c-17.2,0-26-10.7-26-28c0-15.2,6.8-24.5,22.2-24.5c13.4,0,19.5,7.4,19.5,20.7L354.7,227.5L354.7,227.5z M364.9,210.5
				c-6.7,0-10.2,6.1-10.2,12.5H374C374,216.4,372.4,210.5,364.9,210.5z"/>
			<path class="st0" d="M400.2,227.5c0,12.6,4.9,26.9,19.4,26.9c3.3,0,6.7-0.7,9.8-1.9v3.9c-4.7,1.9-9.7,2.9-14.7,2.9
				c-17.2,0-26-10.7-26-28c0-15.2,6.8-24.5,22.2-24.5c13.4,0,19.5,7.4,19.5,20.7L400.2,227.5L400.2,227.5z M410.4,210.5
				c-6.7,0-10.2,6.1-10.2,12.5h19.4C419.5,216.4,417.9,210.5,410.4,210.5z"/>
		</g>
	</g>
</g>
</svg>
