<?xml version="1.0" encoding="UTF-8"?><svg id="_레이어_2" xmlns="http://www.w3.org/2000/svg" viewBox="0 0 431.79 263.79"><g id="_레이어_1-2"><g><g><path d="M166.96,161.16c-.18,0-.35-.05-.51-.17-5.64-4.17-9-12.31-9-21.76,0-.95,0-1.93,.06-2.91-11.28-.09-16.99-5.23-16.99-15.28,0-8.75,4.22-20.26,12.91-35.18,4.38-7.52,10.17-15.73,16.86-23.88l-14.48,5.4c-1.81,4.15-4.22,8.19-9.25,10.04-.1,.04-.19,.05-.29,.05-.14,0-.29-.04-.42-.11-.22-.12-.37-.33-.42-.57l-.13-.63c-.09-.44,.18-.88,.62-.99,2.48-.64,4.04-3.16,5.68-6.23-4.6,1.77-9.78,3.81-14.92,5.97-15.16,24.79-33.69,43.3-53.64,53.58,3.73,11.84,17.67,13.14,23.58,13.14,3.48,0,6.92-.37,10.23-1.11,.06-.01,.12-.02,.18-.02,.16,0,.32,.05,.46,.14,.19,.12,.32,.32,.37,.54l.13,.63c.09,.45-.2,.9-.65,1-3.43,.76-7,1.15-10.6,1.15-13.39,0-22.75-5.25-25.86-14.45-11.88,5.84-24.45,8.8-37.37,8.8C11.39,138.32,0,119.42,0,103.22c0-21.35,18.26-44.38,47.77-44.38,23.13,0,31.34,13.91,31.34,25.82,0,16.08-13.32,32.72-35.6,32.72-13.76,0-19.92-8.3-19.92-16.53,0-9.85,8.3-20.04,22.18-20.04h1c.25,0,.49,.11,.65,.3,.16,.19,.23,.44,.19,.69l-.12,.75c-.07,.41-.42,.71-.84,.71h-1.63c-11.72,0-18.97,9.2-18.97,17.72,0,6.69,4.49,13.83,17.09,13.83,18.94,0,32.15-16.81,32.15-31.89,0-13.61-10.28-21.73-27.5-21.73-28.07,0-45.44,21.83-45.44,42.06,0,15.84,10.82,32.77,41.18,32.77,13.08,0,25.06-3.23,36.58-9.88-.2-1.26-.29-2.53-.29-3.95,0-22.02,24.46-35.72,48.47-46.22l5.01-7.21c9.52-13.69,17.62-24.36,25-32.91-5.27,3.48-9.62,5.14-13.39,5.14-4.29,0-6.75-2.55-6.75-7,0-3.85,1.78-7.52,3.49-11.07,1.69-3.48,3.28-6.77,3.28-10.14,0-5.28-6.41-8.68-16.34-8.68-18.36,0-32.51,10.94-39.31,17.47-10.13,9.72-16.67,21.63-16.67,30.36,0,7.16,4.48,10.94,12.95,10.94,18.73,0,34.99-21.96,39.07-37.13,.1-.38,.44-.63,.82-.63,.05,0,.09,0,.14,.01l.75,.12c.23,.04,.44,.17,.57,.36,.13,.19,.18,.43,.12,.66-3.01,13.55-15.58,39.18-41.6,39.18-9.49,0-15.15-5.01-15.15-13.4,0-18.94,27.25-50.28,58.31-50.28,18.21,0,20.17,9.81,20.17,14.02,0,5.6-2.47,10.12-4.45,13.75-1.38,2.54-2.58,4.73-2.58,6.57,0,1.12,.37,2.41,3.29,2.41,6.25,0,16.05-6.75,23-13.44,6.96-6.96,13.75-12.12,20.16-15.33,.12-.06,.25-.09,.38-.09,.12,0,.24,.03,.36,.08,.23,.11,.41,.32,.47,.57l.12,.5c.09,.38-.08,.78-.43,.96-6.78,3.56-12.79,8.2-19.48,15.02-8.45,8.69-17.12,21.99-30.83,44.74l14.55-5.73c1.6-3.23,4.01-6.99,8.54-8.3,.08-.02,.16-.03,.24-.03,.15,0,.31,.04,.44,.12,.2,.12,.35,.33,.39,.56l.12,.63c.09,.44-.18,.87-.61,.99-2.24,.6-3.63,2.21-4.99,4.47,6.08-2.27,11.19-4.12,15.94-5.77C197.76,29.69,233.98,0,252.52,0c6.56,0,10.64,3.31,10.64,8.63,0,19.63-39.4,33.97-81.14,49.15-22.81,27.17-37.54,53.02-37.54,65.9,0,7,4.19,10.28,13.17,10.31,2.68-30.07,27.78-59.34,51.09-59.34,6.12,0,9.63,3.47,9.63,9.51,0,16.82-26.31,50.48-58.27,52.01-.06,1.05-.06,2.04-.06,3.07,0,9.25,2.67,15.94,7.94,19.89,.2,.15,.32,.37,.34,.62s-.07,.49-.25,.66l-.5,.5c-.17,.16-.38,.25-.6,.25Zm41.78-84.18c-18.56,0-44.84,31.08-48.34,56.84,29.99-1.78,55.64-34.15,55.64-49.66,0-4.76-2.46-7.18-7.3-7.18Zm-83.2,2.72c-20.82,9.46-43.42,22.74-43.42,42.47,0,.95,.05,1.8,.16,2.63,17.4-10.82,31.41-28.66,43.26-45.1ZM252.52,2.33c-15.99,0-45.02,25.64-67.53,51.83,37.8-13.69,75.84-27.92,75.84-45.53,0-5.69-5.81-6.3-8.31-6.3Z" style="fill:#0c6336;"/><path d="M162.19,58.94c-3.26,.88-4.89,3.64-6.65,6.9,6.02-2.26,12.17-4.52,18.32-6.65C199.45,28.95,235.08,.85,252.52,.85c5.27,0,9.78,2.38,9.78,7.78,0,19.07-39.39,33.37-80.79,48.43-21.2,25.22-37.89,52.57-37.89,66.62,0,7.9,5.14,11.17,14.18,11.17h.63c2.26-29.73,27.22-59.34,50.31-59.34,6.15,0,8.78,3.51,8.78,8.66,0,16.43-26.47,50.18-58.21,51.19-.12,1.38-.12,2.63-.12,3.89,0,8.53,2.26,16.06,8.28,20.58l-.5,.5c-6.27-4.64-8.66-13.42-8.66-21.08,0-1.25,0-2.51,.12-3.76h-.63c-12.29,0-16.44-6.02-16.44-14.43,0-11.04,7.03-24.84,12.8-34.75,4.89-8.41,11.42-17.44,18.82-26.22l-17.82,6.65c-1.88,4.39-4.14,8.15-8.91,9.91l-.13-.63c3.39-.88,5.14-4.64,7.28-8.66-5.9,2.26-11.67,4.52-17.31,6.9-14.3,23.46-32.49,42.91-54.07,53.82,2.88,10.54,13.55,14.43,24.59,14.43,3.51,0,7.03-.38,10.41-1.13l.13,.63c-3.39,.75-6.9,1.13-10.41,1.13-11.42,0-22.33-4.14-25.34-14.8-11.67,5.9-24.34,9.16-37.89,9.16C13.77,137.47,.85,121.04,.85,103.22c0-20.95,17.69-43.53,46.92-43.53,21.08,0,30.49,12.04,30.49,24.97,0,15.31-12.92,31.87-34.75,31.87-13.05,0-19.07-7.53-19.07-15.68,0-9.28,7.78-19.19,21.33-19.19h1l-.12,.75h-1.63c-12.42,0-19.82,9.66-19.82,18.57,0,7.65,5.4,14.68,17.94,14.68,19.45,0,33-17.44,33-32.75,0-11.92-8.28-22.58-28.35-22.58C19.04,60.32,1.48,82.65,1.48,103.22c0,17.44,12.67,33.62,42.03,33.62,14.3,0,26.6-3.89,37.51-10.29-.25-1.38-.38-2.76-.38-4.39,0-20.32,21.45-33.87,48.18-45.54l5.14-7.4c10.04-14.43,20.45-28.35,30.74-39.27-6.4,5.27-13.67,10.16-19.82,10.16-4.39,0-5.9-2.89-5.9-6.15,0-7.28,6.77-14.05,6.77-21.2,0-5.14-5.52-9.53-17.19-9.53-30.61,0-56.83,30.99-56.83,48.68,0,6.9,4.14,11.79,13.8,11.79,19.57,0,35.88-22.83,39.9-37.76l.75,.12c-3.26,14.68-16.06,38.52-40.77,38.52-9.66,0-14.3-5.14-14.3-12.55,0-18.19,26.35-49.43,57.46-49.43,14.55,0,19.32,6.52,19.32,13.17,0,9.28-7.03,15.43-7.03,20.32,0,2.26,1.5,3.26,4.14,3.26,6.77,0,16.81-7.15,23.59-13.67,6.65-6.65,13.42-11.92,19.95-15.18l.12,.5c-7.4,3.89-13.42,8.78-19.7,15.18-8.91,9.16-18.07,23.46-32.24,47.05l17.19-6.77c1.88-3.89,4.27-7.03,8.16-8.15l.12,.63ZM81.65,126.18c18.19-10.92,32.62-29.23,46.42-48.55-26.1,11.54-46.8,25.09-46.8,44.54,0,1.51,.12,2.76,.38,4.01Zm77.78,8.53c30.99-1.13,57.46-34.75,57.46-50.56,0-4.89-2.51-8.03-8.16-8.03-19.82,0-46.42,33.12-49.3,58.59Zm22.83-78.66c40.9-14.8,79.42-29.11,79.42-47.42,0-5.14-4.27-7.15-9.16-7.15-16.44,0-46.04,25.84-70.26,54.57Z" style="fill:#0c6336;"/></g><g><path d="M222.54,126.9c-5.21,0-7.44-2.41-8.4-7.45-3.93,4.49-8.4,7.45-14.56,7.45-6.8,0-13.93-4.93-13.93-12.48,0-14.12,18.18-16.1,28.38-16.64v-5.47c0-5.58,.11-14.23-7.34-14.23-10.52,0-3.29,13.14-12.97,13.14-3.3,0-6.06-1.97-6.06-5.58,0-8.87,12.97-11.28,19.45-11.28,12.76,0,17.65,4.82,17.65,17.96v21.79c0,3.72,0,9.09,4.78,9.09,1.38,0,2.87-.55,4.15-.99v2.74c-3.83,1.31-7.12,1.97-11.16,1.97Zm-8.5-25.07c-6.91,.22-16.8,1.97-16.8,11.06,0,4.27,2.23,7.77,6.7,7.77,7.12,0,10.1-5.8,10.1-12.48v-6.35Z" style="fill:#0c6336;"/><path d="M263.36,126.9c-7.12,0-9.57-2.41-13.5-7.77h-.21v17.74c0,6.57,1.06,9.75,7.97,9.64v2.41h-26.68v-2.41c6.91,.11,7.97-3.07,7.97-9.64v-48.73c0-6.02-2.13-8.87-7.97-8.76v-2.41l18.71-2.63v8.76c4.57-5.37,7.23-8.76,14.99-8.76,13.93,0,17.65,14.12,17.65,25.95,0,13.03-3.93,26.61-18.92,26.61Zm-3.61-46.32c-9.25,0-10.1,12.81-10.1,19.71s.11,21.35,10.1,21.35c11.38,0,10.95-12.81,10.95-21.35,0-7.77-.85-19.71-10.95-19.71Z" style="fill:#0c6336;"/><path d="M316.83,126.9c-7.12,0-9.57-2.41-13.5-7.77h-.21v17.74c0,6.57,1.06,9.75,7.97,9.64v2.41h-26.68v-2.41c6.91,.11,7.97-3.07,7.97-9.64v-48.73c0-6.02-2.13-8.87-7.97-8.76v-2.41l18.71-2.63v8.76c4.57-5.37,7.23-8.76,14.99-8.76,13.93,0,17.65,14.12,17.65,25.95,0,13.03-3.93,26.61-18.92,26.61Zm-3.61-46.32c-9.25,0-10.1,12.81-10.1,19.71s.11,21.35,10.1,21.35c11.38,0,10.95-12.81,10.95-21.35,0-7.77-.85-19.71-10.95-19.71Z" style="fill:#0c6336;"/><path d="M385.82,87.7l-17.33,45.11c-3.61,9.31-5.85,16.1-17.22,16.1-4.46,0-11.8-1.86-11.8-7.66,0-3.5,2.66-5.91,5.95-5.91,6.7,0,4.57,7.99,9.89,7.99,4.78,0,8.08-10.73,9.46-14.12l-17.54-41.94c-2.66-6.24-4.04-9.42-11.37-9.42v-2.41h26.26v2.41c-1.91,0-5.53,.11-5.53,2.85,0,1.31,1.17,3.83,1.59,5.04l11.59,29.46,10.21-27.92c.53-1.42,1.7-4.05,1.7-5.58,0-3.5-3.08-3.83-5.85-3.83v-2.41h21.58v2.41c-7.76,0-9.04,3.07-11.59,9.85Z" style="fill:#0c6336;"/></g><g><path d="M193.32,263.79c-39.15,0-43.38-9.19-43.38-13.15,0-4.54,5.5-9.13,17.79-9.13,17.66,0,35.51,4.76,52.77,9.36,5.79,1.54,11.26,3,16.7,4.28,29.7-10.07,44.76-32.14,62.19-57.68l3.88-5.88,.4-.6c15.84-23.64,29.52-44.05,54.44-46.08,.02,0,.05,0,.07,0,.21,0,.42,.08,.58,.23,.17,.16,.27,.39,.27,.62v.63c0,.45-.34,.82-.79,.85-22.67,1.64-34.25,21.28-46.51,42.08-2.43,4.12-4.94,8.37-7.53,12.48-18,28.43-33.08,45.86-59.71,54.93,7.44,1.43,13.53,2.1,18.97,2.1,20.67,0,33.34-6.65,48.39-25.4,.17-.21,.41-.32,.66-.32,.18,0,.36,.06,.51,.17l.5,.38c.18,.14,.3,.34,.33,.57,.03,.23-.03,.46-.17,.64-18.99,24.26-35.88,26.3-50.23,26.3-6.74,0-14.06-.92-23.68-2.99-13.13,3.78-28.33,5.62-46.45,5.62Zm-25.59-19.95c-10.62,0-15.46,3.53-15.46,6.8,0,1.81,1.98,10.82,41.05,10.82,15.1,0,28.08-1.62,39.58-4.96-4.19-1.05-8.4-2.19-12.81-3.38-16.9-4.57-34.38-9.29-52.36-9.29Zm70.51-25.59c-19.2,0-30.21-10.1-30.21-27.7,0-14.85,6.6-29.72,18.11-40.79,14.3-13.76,35.44-21.03,61.15-21.03,14.36,0,30.85,1.79,48.3,3.67,20.92,2.26,42.55,4.61,65.12,4.61,25.96,0,28.76-9.58,28.76-13.7,0-2.52-1.3-4.96-2.51-6.17-.33-.33-.33-.87,0-1.2l.38-.38c.17-.17,.38-.25,.6-.25s.44,.08,.6,.25c1.89,1.89,3.26,5.15,3.26,7.75,0,9.36-9,20.3-34.35,20.3-19.78,0-39.32-3.29-58.22-6.47-18.17-3.06-35.34-5.95-52.06-5.95-60.76,0-76.81,38.83-76.81,59.37,0,15.96,9.89,25.12,27.13,25.12,24.67,0,44.69-27.57,44.69-45.57,0-5.63-2.06-15.08-15.83-15.08-16.83,0-31.25,15.26-34.29,36.28-.03,.24-.17,.45-.37,.58-.14,.09-.31,.14-.47,.14-.07,0-.14,0-.21-.03l-.5-.12c-.41-.1-.69-.5-.64-.92,2.12-18.81,16.39-38.27,36.6-38.27,12.24,0,19.54,7.35,19.54,19.67,0,9.87-4.96,21.42-12.96,30.15-9.29,10.15-21.66,15.74-34.81,15.74Z" style="fill:#0c6336;"/><path d="M313,234.34c-18.07,23.08-33.75,25.97-49.56,25.97-7.65,0-15.56-1.25-23.71-3.01-12.55,3.64-27.73,5.65-46.42,5.65-33.62,0-42.53-6.77-42.53-12.29,0-4.52,6.02-8.28,16.94-8.28,23.46,0,47.55,8.53,69.5,13.67,29.86-10.04,44.79-31.62,62.85-58.09l3.89-5.9c15.81-23.59,29.48-44.29,54.2-46.29v.63c-27.73,2.01-39.14,30.36-54.7,54.95-17.31,27.35-32.87,46.54-62.35,55.58,7.78,1.63,15.31,2.76,22.33,2.76,21.96,0,34.75-7.9,49.05-25.72l.5,.38Zm-76.91,22.08c-21.45-5.14-44.54-13.42-68.38-13.42-10.54,0-16.31,3.51-16.31,7.65,0,5.02,8.53,11.67,41.9,11.67,17.19,0,31.11-2.13,42.78-5.9ZM427.92,116.16c1.63,1.63,3.01,4.64,3.01,7.15,0,9.03-8.66,19.45-33.5,19.45-38.39,0-75.78-12.42-110.28-12.42-56.96,0-77.66,34.88-77.66,60.22,0,17.31,11.29,25.97,27.98,25.97,25.09,0,45.54-27.98,45.54-46.42,0-9.03-4.89-15.93-16.69-15.93-17.06,0-31.99,15.31-35.13,37.01l-.5-.12c2.01-17.82,15.68-37.51,35.75-37.51,12.92,0,18.69,8.28,18.69,18.82,0,18.82-18.32,45.04-46.92,45.04-17.44,0-29.36-8.78-29.36-26.85,0-25.84,21.45-60.97,78.41-60.97,30.99,0,71.39,8.28,113.41,8.28,24.21,0,29.61-8.41,29.61-14.55,0-2.76-1.38-5.39-2.76-6.78l.38-.38Z" style="fill:#0c6336;"/></g><g><path d="M336.6,218.62c-3.72,0-3.19-2.52-6.59-2.52-1.17,0-2.23,.77-3.08,1.64-3.83,3.94-5,11.06-5,16.31v12.26c0,6.57,1.06,9.53,7.97,9.53v2.41h-26.68v-2.41c6.91,0,7.97-2.96,7.97-9.53v-25.73c0-6.02-2.13-8.76-7.97-8.76v-2.41l18.71-2.63v12.7h.21c2.45-6.68,6.8-12.7,14.46-12.7,2.98,0,5.74,2.52,5.74,5.69,0,3.5-2.34,6.13-5.74,6.13Z" style="fill:#0c6336;"/><path d="M354.67,227.49c0,12.59,4.89,26.94,19.35,26.94,3.3,0,6.7-.66,9.78-1.86v3.94c-4.68,1.86-9.67,2.85-14.67,2.85-17.22,0-26.04-10.73-26.04-28.03,0-15.22,6.8-24.53,22.22-24.53,13.39,0,19.45,7.45,19.45,20.7h-30.08Zm10.21-16.97c-6.7,0-10.21,6.13-10.21,12.48h19.35c0-6.57-1.59-12.48-9.14-12.48Z" style="fill:#0c6336;"/><path d="M400.16,227.49c0,12.59,4.89,26.94,19.35,26.94,3.3,0,6.7-.66,9.78-1.86v3.94c-4.68,1.86-9.67,2.85-14.67,2.85-17.22,0-26.04-10.73-26.04-28.03,0-15.22,6.8-24.53,22.22-24.53,13.39,0,19.45,7.45,19.45,20.7h-30.08Zm10.21-16.97c-6.7,0-10.21,6.13-10.21,12.48h19.35c0-6.57-1.59-12.48-9.14-12.48Z" style="fill:#0c6336;"/></g></g></g></svg>